<svg width="582" height="441" viewBox="0 0 582 441" fill="none" xmlns="http://www.w3.org/2000/svg">
<path d="M506.624 365.826C498.701 333.057 433.515 319.67 401.912 317.072L231.295 316.914H213.817L213.109 313.492C164.023 312.64 66.368 322.75 68.4377 370.008C71.0248 429.08 181.408 440.291 253.416 440.291C325.424 440.291 516.529 406.787 506.624 365.826Z" fill="#ACB1B3"/>
<path fill-rule="evenodd" clip-rule="evenodd" d="M239.326 317.001C244.715 317.001 247.043 317.124 244.532 317.247C242.02 317.369 237.611 317.369 234.732 317.247C231.853 317.124 233.936 317.001 239.326 317.001Z" fill="#FFA53C"/>
<path d="M198.219 214.411C209.717 191.128 234.482 179.419 245.427 176.475C253.775 180.379 271.815 188.443 277.191 189.46C283.912 190.732 290.087 188.734 297.171 187.28C302.838 186.118 311.654 177.336 315.354 173.091C333.679 175.246 354.878 204.71 364.579 214.411C374.281 224.113 404.463 291.663 404.463 297.771C404.463 303.879 408.774 322.563 383.263 328.672C362.855 333.558 315.833 323.845 294.873 317.377L214.388 316.377C207.681 319.731 192.182 324.863 183.846 322.563C173.426 319.689 171.63 306.035 171.63 286.273C171.63 266.511 183.846 243.515 198.219 214.411Z" fill="#443436"/>
<path d="M266.553 216.687L246.138 203.871L252.869 187.079C251.093 185.076 247.21 179.688 244.216 174.517C240.473 168.052 236.78 157.476 237.46 154.187C238.141 150.898 241.488 151.247 243.303 151.247C245.118 151.247 253.283 160.207 254.758 161.794C256.232 163.382 265.192 170.641 271.203 174.95C277.214 179.26 276.874 188.106 276.533 192.643C276.261 196.272 269.766 210.184 266.553 216.687Z" fill="#FFC1B4"/>
<path d="M293.059 294.026L288.229 312.645L269.406 309.44C269.255 309.309 268.227 309.44 265.325 311.015C261.697 312.985 251.955 315.887 247.913 316.094C243.871 316.301 243.664 311.223 243.767 308.01C243.871 304.797 248.328 302.517 263.045 296.195C274.818 291.137 287.96 292.641 293.059 294.026Z" fill="#FFC1B4"/>
<path d="M292.612 189.186C300.456 188.12 308.636 180.937 311.745 177.478L308.108 155.539C308.061 155.05 307.968 154.048 307.968 153.955C307.968 153.839 300.281 148.311 296.679 143.343C293.078 138.375 298.17 133.532 303.759 130.427C309.348 127.322 303.635 113.659 303.014 111.051C302.393 108.443 298.667 110.927 295.81 111.051C292.953 111.175 277.304 109.472 273.951 105.214C271.268 101.807 272.088 92.6163 272.833 88.4468C268.9 90.3926 260.015 94.5094 255.942 95.4103C251.868 96.3112 249.087 95.7857 248.206 95.4103C247.229 98.7863 244.975 106.325 243.77 109.472C242.564 112.619 236.125 123.451 233.056 128.473L242.913 132.255C243.271 132.201 243.731 132.65 242.709 134.884C241.433 137.676 241.832 147.728 243.348 149.962C244.863 152.196 258.905 165.12 261.697 166.476C264.489 167.833 270.393 165.758 275.339 165.679C280.285 165.599 290.88 161.163 291.733 162.424C292.415 163.432 272.864 176.937 275.339 178.651C277.319 180.022 278.302 187.251 278.334 190.424C279.825 190.456 284.769 190.253 292.612 189.186Z" fill="#FFC1B4"/>
<path fill-rule="evenodd" clip-rule="evenodd" d="M260.272 53.9627C262.416 53.9015 266.275 54.3304 268.908 54.8818C271.481 55.4333 275.707 56.72 278.218 57.7616C280.729 58.8032 284.894 61.009 287.405 62.6633C289.916 64.3177 292.488 66.1558 293.162 66.7073C293.958 67.3812 295.489 67.6876 298.674 67.7489C301.859 67.7489 303.819 68.1165 306.085 69.1581C307.8 69.9546 310.005 70.9963 310.985 71.5477C312.026 72.0992 313.863 73.3246 315.15 74.3662C316.436 75.4078 318.579 77.6749 319.866 79.3292C321.152 81.0448 323.05 84.0471 324.092 86.0691C325.072 88.091 326.664 92.2575 327.583 95.2598C328.44 98.2621 329.481 102 329.788 103.532C330.094 105.063 330.339 109.475 330.339 113.335C330.339 117.256 329.971 122.281 329.42 124.67C328.93 127.06 327.828 130.859 326.909 133.248C326.052 135.638 324.398 139.069 323.234 140.907C322.132 142.745 319.498 145.993 317.355 148.137C315.211 150.282 312.332 152.549 310.985 153.162C309.637 153.836 307.433 154.387 306.085 154.387C304.676 154.387 302.594 153.774 301.247 152.978C299.899 152.242 297.939 150.527 296.898 149.179C295.612 147.586 294.632 145.196 293.958 142.316C293.407 139.866 292.917 136.925 292.917 135.883C292.917 134.106 293.162 133.738 295.183 133.003C296.469 132.513 298.674 130.92 300.144 129.449C301.798 127.795 302.962 125.896 303.39 124.241C303.758 122.771 303.88 120.565 303.696 119.34C303.513 118.053 302.778 115.908 302.104 114.56C301.43 113.212 300.45 111.987 299.96 111.803C299.47 111.619 298.429 111.864 297.694 112.355C296.898 112.784 294.754 113.641 292.917 114.193C291.08 114.744 288.446 115.173 287.099 115.173C285.751 115.173 283.301 114.805 281.586 114.315C279.933 113.825 277.299 112.538 275.829 111.374C274.175 110.21 272.461 108.127 271.542 106.289C270.317 103.838 270.011 102.367 270.072 98.9361C270.072 96.3627 270.501 93.728 271.113 92.3801C271.664 91.0934 271.909 90.0517 271.664 90.0517C271.358 89.9905 270.868 90.3581 270.501 90.787C270.072 91.2159 267.744 92.5639 265.295 93.728C261.069 95.75 260.395 95.8725 248.329 95.8725L246.982 100.162C246.247 102.551 244.838 106.534 243.858 109.046C242.939 111.558 240.183 116.889 237.795 120.871C235.467 124.793 233.569 128.163 233.691 128.285C233.752 128.408 235.957 129.327 238.591 130.246C243.123 131.9 243.429 132.145 243.062 133.555C242.878 134.412 242.511 136.986 242.327 139.375C242.082 141.888 242.205 145.012 242.633 146.912C243.123 149.24 243.613 150.159 244.532 150.404C245.206 150.588 247.594 152.794 249.922 155.367C252.188 157.941 255.679 161.433 261.375 166.212L268.112 165.845C272.644 165.6 277.605 164.864 283.301 163.455C287.956 162.352 291.876 161.617 292.06 161.923C292.182 162.168 290.467 164.313 288.201 166.703C285.874 169.092 282.383 172.34 280.361 173.81C278.34 175.342 276.319 176.751 275.89 176.996C275.217 177.303 275.339 177.915 276.38 180.121C277.177 181.653 277.911 184.41 278.034 186.248C278.218 188.331 277.973 191.089 277.299 193.601C276.748 195.807 275.462 199.483 274.543 201.872C273.563 204.262 271.664 208.551 270.317 211.553C268.908 214.494 267.561 216.762 267.193 216.578C266.826 216.394 268.296 212.595 270.501 207.877C272.583 203.22 274.91 197.89 275.523 196.052C276.258 193.968 276.687 190.966 276.687 188.086C276.687 184.165 276.442 182.94 274.849 179.876C273.747 177.731 271.909 175.342 270.256 173.994C268.724 172.768 265.172 170.134 262.294 168.112C259.415 166.151 254.209 161.556 250.657 157.941C245.144 152.304 243.919 151.385 242.266 151.323C240.367 151.323 240.245 151.446 240.245 153.468C240.245 154.632 240.796 156.654 241.408 157.941C242.082 159.166 244.103 162.046 246.002 164.374C247.9 166.641 251.637 170.318 254.331 172.646C257.026 174.913 258.925 176.812 258.619 176.935C258.251 176.996 256.72 176.016 255.128 174.79C253.535 173.504 250.105 170.379 247.594 167.805C245.083 165.293 242.143 161.556 241.041 159.534C239.938 157.573 239.081 155.429 239.02 154.877C239.02 154.203 238.775 153.958 238.285 154.264C237.856 154.571 237.733 155.796 237.978 158.063C238.223 160.147 239.326 163.455 240.918 166.641C242.266 169.521 244.961 174.178 246.798 177.057C248.697 179.937 250.963 183.307 253.719 186.861L252.739 189.802C252.127 191.395 250.473 195.071 249.064 198.074C247.594 201.015 246.124 203.282 245.757 203.098C245.389 202.914 245.634 201.995 246.308 200.831C246.982 199.728 248.635 196.235 252.494 187.474L247.962 180.918C245.451 177.241 242.205 171.849 240.673 168.786C239.142 165.783 237.611 162.168 237.244 160.82C236.876 159.473 236.57 157.512 236.57 156.531C236.57 155.551 237.121 153.774 237.795 152.733C238.468 151.568 239.693 150.588 240.551 150.404C241.96 150.098 242.021 149.914 241.653 148.137C241.347 147.034 241.163 144.338 241.163 142.133C241.163 139.927 241.347 136.925 242.082 132.636L237.182 130.981C234.487 130.001 232.16 129.082 231.976 128.837C231.854 128.53 232.65 126.999 233.752 125.283C234.855 123.629 237.182 119.646 238.958 116.582C240.673 113.458 243.184 107.637 244.532 103.715C245.879 99.7327 246.982 96.1176 246.982 95.75C246.982 95.3211 245.696 94.2795 244.103 93.483C242.449 92.6864 240.551 91.3997 239.816 90.7257C237.049 88.171 237.107 88.1598 235.345 84.4147C233.936 81.535 233.446 79.5743 233.324 76.572C233.262 74.3662 233.446 71.6703 233.691 70.6286C233.936 69.5257 234.61 67.565 235.284 66.3396C235.896 65.0529 237.733 62.8471 239.387 61.3766C241.041 59.9061 243.919 58.0067 245.757 57.1489C247.594 56.2911 250.779 55.2495 252.8 54.8206C254.821 54.3304 258.19 53.9627 260.334 53.9627H260.272ZM283.669 292.555C287.221 292.738 290.957 293.045 291.937 293.351C292.978 293.596 293.468 294.025 293.162 294.148C292.856 294.331 289.793 294.209 286.425 293.903C282.015 293.412 278.891 293.474 275.4 293.964C272.705 294.331 268.051 295.373 264.988 296.231C261.987 297.089 256.72 299.111 253.351 300.765C249.922 302.419 246.492 304.564 245.573 305.667C244.409 306.953 243.858 308.24 243.858 309.711C243.858 311.304 244.348 312.345 245.879 313.816C247.778 315.715 247.962 315.715 251.514 315.348C254.148 315.102 256.965 314.122 268.051 308.608L276.932 310.017C281.831 310.752 286.486 311.671 287.344 311.978C288.201 312.223 288.752 312.59 288.568 312.774C288.385 312.897 283.73 312.345 268.051 309.894L255.189 316.205L270.807 316.083C279.381 316.083 288.507 316.083 295.612 316.328L291.018 316.818C288.507 317.063 269.704 317.247 249.248 317.186C228.73 317.124 212.01 316.879 212.01 316.573C212.01 316.328 216.052 316.144 221.074 316.144C226.035 316.144 233.446 315.96 244.961 315.225L243.797 313.693C243.123 312.835 242.572 311.242 242.633 310.139C242.633 309.098 243.001 307.444 243.491 306.463C243.981 305.544 245.696 303.829 247.288 302.664C248.942 301.5 251.943 299.846 253.964 298.927C255.985 298.008 259.966 296.537 262.845 295.679C265.723 294.76 270.133 293.596 272.644 293.167C275.645 292.555 279.504 292.371 283.669 292.555Z" fill="#443436"/>
<path fill-rule="evenodd" clip-rule="evenodd" d="M253.351 107.33C254.025 107.453 254.944 108.188 255.434 109.046C255.863 109.904 256.046 111.497 255.863 112.722C255.679 113.886 255.066 115.357 254.454 115.97C253.903 116.582 252.984 117.073 252.494 117.073C252.004 117.073 251.147 116.582 250.657 116.031C250.105 115.418 249.738 113.825 249.738 112.293C249.799 110.455 250.167 109.169 250.963 108.372C251.575 107.698 252.678 107.208 253.351 107.33ZM299.47 116.399C299.899 116.399 300.267 116.705 300.267 117.011C300.267 117.379 299.838 117.624 299.348 117.624C298.858 117.624 297.511 118.482 296.408 119.462C295.306 120.504 294.019 122.158 293.652 123.138C292.978 124.854 292.978 124.977 294.571 125.344C295.673 125.589 296.041 125.896 295.673 126.263C295.306 126.631 294.448 126.631 293.346 126.202C291.937 125.712 291.753 125.344 291.998 123.935C292.182 122.955 292.856 121.545 293.468 120.688C294.081 119.83 295.489 118.543 296.592 117.808C297.755 117.011 299.042 116.399 299.47 116.399ZM260.272 138.456C260.395 138.456 260.456 138.701 260.456 139.069C260.456 139.437 259.415 140.846 258.129 142.194C256.904 143.603 255.128 145.135 254.148 145.564C253.229 146.054 252.065 146.422 251.575 146.422C251.085 146.422 250.657 146.177 250.657 145.809C250.657 145.503 251.575 145.012 252.616 144.767C253.903 144.522 255.618 143.358 257.394 141.459C258.925 139.804 260.211 138.456 260.272 138.456ZM243.062 200.953C243.552 200.953 243.429 201.444 242.756 202.424C242.204 203.22 236.386 211.002 229.771 219.703C223.218 228.464 214.215 240.535 209.866 246.601C205.456 252.667 199.209 261.612 195.902 266.514C192.594 271.416 189.777 275.521 189.655 275.705C189.471 275.889 189.348 275.582 189.41 275.092C189.41 274.602 191.982 270.313 195.106 265.595C198.229 260.877 204.109 252.483 208.09 246.907C212.071 241.331 221.136 229.138 228.24 219.764C235.345 210.328 241.408 202.301 241.776 201.811C242.082 201.321 242.633 200.953 243.062 200.953ZM270.929 219.335C271.236 219.335 271.481 219.457 271.481 219.641C271.481 219.825 266.336 229.383 260.089 240.964C253.841 252.483 246.492 265.901 243.797 270.803C241.041 275.705 236.141 284.589 232.834 290.594C229.465 296.537 226.525 301.316 226.158 301.133C225.852 300.949 229.894 293.045 235.222 283.548C240.551 273.989 248.39 259.835 252.616 252.115C256.843 244.395 262.538 233.795 265.295 228.709C268.051 223.563 270.562 219.335 270.929 219.335ZM329.543 245.375C329.91 245.682 331.564 249.174 333.217 253.034C334.871 256.894 337.811 263.267 339.771 267.127C341.67 270.987 345.222 277.543 347.611 281.709C351.224 287.837 352.265 289.246 353.429 289.185C354.164 289.185 354.776 289.491 354.776 289.797C354.776 290.104 352.633 290.594 350.06 290.778C347.427 291.023 336.035 291.023 324.765 290.778C313.496 290.533 302.349 290.165 300.022 289.92C297.449 289.675 295.673 289.185 295.551 288.756C295.428 288.204 295.918 288.082 297.082 288.266C298 288.449 302.594 288.878 307.31 289.185C312.026 289.491 323.663 289.797 333.217 289.797C342.711 289.797 350.489 289.613 350.489 289.368C350.428 289.062 349.08 286.672 347.488 283.976C345.834 281.281 342.833 275.889 340.812 272.029C338.73 268.168 335.422 261.245 333.462 256.711C331.441 252.177 329.604 247.581 329.359 246.601C329.053 245.314 329.114 244.946 329.543 245.375ZM258.312 322.271C277.36 322.271 293.039 322.455 293.162 322.761C293.284 323.007 293.162 326.499 292.856 330.543C292.611 334.587 291.815 346.719 291.141 357.502C290.406 368.286 289.61 379.131 289.365 381.521C289.058 385.013 288.752 385.932 288.017 385.81C287.466 385.749 287.037 386.239 286.976 387.097C286.792 388.383 286.547 388.445 281.158 388.445C278.034 388.445 260.885 388.2 243.001 387.832C225.178 387.464 209.376 387.035 207.967 386.852C205.518 386.606 205.334 386.484 205.028 384.462C204.721 382.44 204.599 382.317 202.271 382.317C200.25 382.317 199.883 382.134 200.067 381.276C200.189 380.663 202.7 374.352 205.64 367.306C208.58 360.26 213.725 347.393 217.093 338.815C220.462 330.237 223.34 323.007 223.463 322.761C223.647 322.455 239.326 322.271 258.312 322.271ZM411.736 328.46C415.288 328.398 419.024 328.521 420.004 328.766C421.536 329.072 422.393 329.992 425.149 334.709C426.925 337.834 432.683 347.76 437.95 356.89C443.156 366.019 449.342 376.742 451.669 380.786C453.935 384.83 455.834 388.261 455.834 388.445C455.834 388.628 454.67 388.567 453.2 388.322C451.792 388.077 450.444 387.893 450.199 387.832C449.893 387.832 450.383 389.119 451.179 390.773C451.914 392.366 452.771 394.511 453.016 395.491C453.323 396.839 453.139 397.635 452.343 398.432C451.73 398.983 449.893 399.78 448.178 400.086C446.524 400.393 436.725 401.373 426.435 402.231C416.146 403.027 404.448 403.885 400.405 404.13C396.118 404.314 391.402 404.927 389.075 405.601C386.87 406.213 379.459 408.297 372.538 410.135C365.617 411.973 354.899 415.037 348.652 416.875C341.547 419.019 336.157 420.306 334.259 420.306C332.36 420.306 330.584 419.938 329.665 419.264C328.808 418.713 327.95 417.916 327.705 417.61C327.46 417.242 322.989 404.13 317.722 388.445C312.516 372.759 308.229 359.341 308.229 358.605C308.229 357.809 308.902 356.645 309.76 355.971C311.107 354.868 311.23 354.5 310.679 352.907C310.25 351.559 310.25 350.824 310.862 350.089C311.23 349.598 313.557 348.373 315.885 347.393C318.273 346.412 322.377 345.064 325.072 344.39C327.766 343.716 332.483 342.859 335.484 342.491C338.546 342.185 343.078 341.878 345.589 341.878C348.1 341.878 352.51 342.185 355.389 342.491C358.267 342.859 362.861 343.655 370.701 345.555L373.334 342.92C374.743 341.449 377.315 339.305 378.969 338.202C380.684 337.038 384.236 335.077 386.931 333.852C389.626 332.565 394.036 331.033 396.731 330.298C399.425 329.624 402.488 328.95 403.468 328.827C404.509 328.705 408.184 328.521 411.736 328.46ZM158.357 331.585C178.814 331.707 189.716 331.952 189.655 332.381C189.593 332.687 189.348 336.241 188.797 347.393L191.247 347.699C193.207 347.944 193.697 348.25 193.697 349.231C193.697 349.905 191.308 357.809 188.43 366.877C185.551 375.884 181.141 389.486 174.098 411.115H138.575C115.485 411.115 102.929 410.87 102.745 410.502C102.561 410.196 102.868 409.216 103.358 408.358C103.848 407.5 104.95 406.458 105.808 406.091C106.91 405.539 107.339 404.804 107.339 403.64C107.339 402.66 107.216 401.496 107.032 401.005C106.787 400.331 105.869 400.086 103.848 400.086C102.194 400.086 100.724 399.902 100.479 399.657C100.234 399.351 100.847 397.084 101.765 394.572C102.745 392.06 108.686 377.048 114.995 361.179C121.303 345.309 126.57 332.197 126.693 331.891C126.876 331.646 141.147 331.523 158.357 331.585Z" fill="#443436"/>
<path d="M219.427 336.482C221.858 330.133 223.958 324.651 224.137 324.293C224.382 323.68 231.732 323.497 291.999 323.497L291.57 330.972C291.325 335.138 290.59 346.902 289.916 357.196C289.243 367.49 288.446 377.783 287.711 384.278L274.849 383.849C267.806 383.665 256.782 383.236 250.351 382.93C243.981 382.624 230.445 382.011 220.34 381.643C210.234 381.215 201.904 380.847 201.782 380.847C201.721 380.786 204.538 373.617 208.152 364.855C211.704 356.093 216.665 343.532 219.237 336.976L219.427 336.482Z" fill="#FFFAF1"/>
<path d="M393.669 332.442C395.383 331.891 398.63 331.094 401.018 330.604C403.407 330.114 408.49 329.685 412.349 329.685C418.29 329.562 419.576 329.746 420.678 330.665C421.413 331.278 424.476 336.057 427.477 341.265C430.478 346.473 437.399 358.483 442.85 367.919C448.24 377.354 452.833 385.565 453.017 386.177C453.323 387.097 453.078 387.158 450.812 386.79C449.342 386.484 444.197 386.3 439.298 386.361C433.724 386.423 428.212 386.851 424.598 387.464C421.413 388.077 416.33 389.364 413.268 390.405C410.205 391.386 404.815 393.714 394.587 398.861L393.424 396.594C392.811 395.307 389.688 388.322 386.441 381.092C383.257 373.862 378.663 363.323 376.274 357.686C373.886 351.988 371.926 347.209 371.926 346.964C371.926 346.657 372.722 345.616 373.641 344.574C374.559 343.471 376.703 341.572 378.357 340.346C380.072 339.06 383.502 337.038 386.013 335.751C388.524 334.525 392.015 332.994 393.669 332.442Z" fill="#FFFAF1"/>
<path d="M168.219 397.513C169.015 395.736 173.731 381.95 178.692 366.877C183.653 351.743 187.756 339.427 187.818 339.427V345.371C187.695 350.456 187.328 352.478 185.429 358.421C184.204 362.282 180.345 374.168 176.793 384.768C173.302 395.368 170.178 404.436 169.933 404.865C169.566 405.539 163.931 405.601 139.188 405.355C122.528 405.233 108.809 405.049 108.748 405.049C108.625 404.988 108.503 404.008 108.258 400.699H166.749L168.219 397.513Z" fill="#FFFAF1"/>
<path d="M331.503 344.39C334.014 344.023 336.954 343.594 337.934 343.471C338.914 343.287 343.507 343.349 348.04 343.471C352.939 343.655 358.819 344.268 362.433 345.003C365.801 345.677 368.925 346.473 369.292 346.657C369.721 346.902 372.906 353.704 376.397 361.791C379.888 369.879 385.033 381.582 387.728 387.832C390.484 394.082 392.689 399.228 392.566 399.351C392.505 399.473 389.014 399.228 384.788 398.799C380.133 398.371 374.437 398.248 370.395 398.554C366.72 398.738 361.575 399.351 359.064 399.78C356.553 400.209 352.817 401.005 350.796 401.557C348.775 402.047 344.793 403.456 341.915 404.559C339.036 405.723 335.239 407.377 330.278 409.89L329.114 406.091C328.502 403.946 325.317 393.959 322.071 383.849C318.764 373.739 315.027 362.22 311.291 351.069L314.17 349.598C315.824 348.802 319.315 347.454 322.01 346.596C324.704 345.738 328.992 344.758 331.503 344.39Z" fill="#FFFAF1"/>
<path d="M206.559 385.687L206.62 383.91L206.682 382.195L215.072 382.624C219.666 382.808 227.812 383.236 233.202 383.543C238.591 383.849 251.698 384.401 262.294 384.768C272.89 385.136 282.505 385.565 283.608 385.749C284.649 385.871 285.568 386.361 285.568 386.79C285.568 387.342 282.015 387.403 268.602 387.097C259.232 386.79 241.47 386.423 206.559 385.687Z" fill="#FFFAF1"/>
<path d="M414.492 391.508C417.861 390.528 422.822 389.241 425.517 388.812C428.212 388.322 434.459 387.893 448.485 387.771L449.097 389.302C449.465 390.16 449.709 391.141 449.709 391.447C449.709 391.814 446.77 392.243 442.85 392.427C439.053 392.611 432.499 393.162 428.273 393.714C424.047 394.204 416.514 395.675 411.43 396.961C406.408 398.248 400.344 400.086 397.956 400.944C394.097 402.414 392.382 402.66 381.297 403.15C374.437 403.456 366.842 404.008 364.454 404.375C362.004 404.682 357.778 405.417 355.083 405.968C352.388 406.52 346.753 408.174 342.527 409.645C338.301 411.115 334.81 412.34 334.749 412.34C334.626 412.34 334.32 411.728 333.953 411.054C333.402 410.012 333.769 409.645 337.505 407.99C339.771 406.949 343.936 405.294 346.815 404.314C349.693 403.334 355.267 401.986 359.248 401.312C364.086 400.454 369.108 400.025 374.866 400.025C379.459 400.025 385.523 400.331 393.362 401.25L400.896 397.329C404.999 395.184 411.124 392.55 414.492 391.508Z" fill="#FFFAF1"/>
<path fill-rule="evenodd" clip-rule="evenodd" d="M255.863 323.19C273.074 323.19 280.24 323.251 271.787 323.313C263.335 323.435 249.31 323.435 240.551 323.313C231.793 323.251 238.653 323.19 255.863 323.19ZM127.673 332.687H157.929C181.754 332.687 188.185 332.871 188.124 333.484C188.124 333.851 183.224 348.863 166.443 399.167L134.288 398.922C116.588 398.799 102.011 398.616 101.827 398.493C101.643 398.309 102.317 396.226 103.297 393.775C104.277 391.386 109.054 379.315 113.893 366.999C118.793 354.684 123.876 341.939 125.223 338.631L127.673 332.687ZM190.268 348.679C190.635 348.679 191.248 348.863 191.676 349.108C192.289 349.476 192.228 350.272 191.493 352.907C191.003 354.806 188.492 362.772 185.98 370.676C183.408 378.641 179.611 390.712 173.486 409.89H103.358L106.421 406.826L138.269 406.887C163.87 406.949 170.24 406.765 170.791 406.152C171.159 405.662 174.956 394.817 179.121 382.011C183.347 369.266 187.389 356.461 188.185 353.703C188.982 350.946 189.962 348.679 190.268 348.679ZM311.047 356.583C311.598 356.583 313.068 360.321 315.089 366.877C316.865 372.514 320.846 384.891 323.909 394.265C326.971 403.701 329.727 411.421 330.033 411.36C330.34 411.299 331.075 411.054 331.626 410.87C332.422 410.625 332.728 410.87 332.728 411.728C332.728 412.463 333.218 413.137 333.769 413.382C334.382 413.627 338.424 412.586 343.446 410.87C348.162 409.216 354.777 407.439 358.146 406.826C361.514 406.213 368.374 405.417 373.457 404.988C378.48 404.62 383.869 404.375 385.401 404.498C387.728 404.681 385.829 405.355 371.926 409.154C362.984 411.605 351.47 414.853 346.325 416.384C341.18 417.855 335.668 419.142 334.076 419.142C331.809 419.142 330.83 418.835 329.666 417.671C328.502 416.507 325.93 409.583 318.764 388.077C313.619 372.636 309.393 359.402 309.332 358.728C309.271 357.992 309.454 357.257 309.761 357.012C310.006 356.767 310.618 356.583 311.047 356.583ZM450.935 393.346C451.18 393.53 451.547 394.388 451.731 395.184C451.915 396.042 451.915 397.084 451.67 397.451C451.425 397.88 450.016 398.493 448.485 398.799C446.954 399.167 437.032 400.147 426.436 401.005C415.84 401.863 404.632 402.843 401.631 403.088C398.569 403.395 395.996 403.517 395.813 403.395C395.629 403.334 399.059 402.108 403.468 400.76C407.817 399.351 414.738 397.574 418.78 396.716C422.823 395.92 429.56 394.939 433.786 394.572C438.012 394.204 443.463 393.714 445.974 393.469C448.485 393.285 450.69 393.224 450.935 393.346Z" fill="#FFEB43"/>
<path d="M238.713 332.503C237.06 332.626 234.426 332.626 232.895 332.503C231.364 332.381 232.772 332.319 235.957 332.319C239.142 332.319 240.428 332.381 238.713 332.503Z" fill="#443436"/>
<path d="M227.076 337.711C226.954 337.466 226.954 337.099 227.199 336.792C227.383 336.547 240.612 336.363 256.597 336.363C272.522 336.363 285.69 336.547 285.812 336.792C285.935 337.099 272.767 337.221 256.597 337.16C240.367 337.16 227.75 337.282 228.608 337.589C230.078 338.079 230.078 338.079 228.791 338.14C227.995 338.201 227.26 338.018 227.076 337.711Z" fill="#443436"/>
<path d="M245.451 342.307C241.408 342.429 234.916 342.429 231.057 342.307C227.199 342.245 230.506 342.123 238.407 342.123C246.308 342.123 249.493 342.245 245.451 342.307Z" fill="#443436"/>
<path d="M246.369 343.532C242.511 343.655 235.896 343.655 231.67 343.532C227.444 343.471 230.629 343.348 238.713 343.348C246.798 343.348 250.228 343.471 246.369 343.532Z" fill="#443436"/>
<path d="M276.38 343.532C272.522 343.655 266.336 343.655 262.6 343.532C258.864 343.471 262.048 343.348 269.643 343.348C277.238 343.348 280.239 343.471 276.38 343.532Z" fill="#443436"/>
<path d="M220.768 353.213C220.4 353.029 220.156 352.6 220.339 352.294C220.584 351.926 224.627 351.742 241.163 351.926L230.751 352.294C221.564 352.6 221.013 352.662 231.976 353.152L226.77 353.336C223.892 353.458 221.197 353.397 220.768 353.213Z" fill="#443436"/>
<path d="M269.949 352.11C264.866 352.233 256.781 352.233 251.881 352.11C246.982 352.049 251.146 351.926 261.068 351.926C270.99 351.926 274.972 352.049 269.949 352.11Z" fill="#443436"/>
<path d="M222.605 358.36C220.217 358.36 218.196 358.237 218.196 357.931C218.196 357.686 219.666 357.563 221.38 357.686C223.157 357.747 225.178 357.931 225.851 358.053C226.525 358.176 225.055 358.299 222.605 358.36Z" fill="#443436"/>
<path d="M259.844 358.237C254.27 358.36 245.328 358.36 239.938 358.237C234.549 358.176 239.081 358.053 250.044 358.053C261.007 358.053 265.417 358.176 259.844 358.237Z" fill="#443436"/>
<path d="M280.055 358.237C278.891 358.36 276.686 358.36 275.155 358.237C273.624 358.115 274.604 357.992 277.299 357.992C279.994 357.992 281.219 358.115 280.055 358.237Z" fill="#443436"/>
<path d="M229.22 362.526C226.709 362.649 222.85 362.649 220.645 362.526C218.441 362.404 220.523 362.342 225.239 362.342C229.955 362.342 231.731 362.465 229.22 362.526Z" fill="#443436"/>
<path d="M278.218 362.526C276.013 362.649 272.583 362.649 270.562 362.526C268.541 362.404 270.317 362.342 274.543 362.342C278.769 362.342 280.423 362.404 278.218 362.526Z" fill="#443436"/>
<path d="M230.139 363.752C227.75 363.874 223.769 363.874 221.258 363.752C218.747 363.69 220.645 363.568 225.545 363.568C230.445 363.568 232.527 363.69 230.139 363.752Z" fill="#443436"/>
<path d="M250.35 363.752C247.962 363.874 243.858 363.874 241.163 363.752C238.468 363.69 240.367 363.568 245.451 363.568C250.473 363.568 252.739 363.69 250.35 363.752Z" fill="#443436"/>
<path d="M276.074 363.752C272.338 363.874 266.458 363.874 262.906 363.752C259.354 363.69 262.416 363.568 269.643 363.568C276.87 363.568 279.81 363.69 276.074 363.752Z" fill="#443436"/>
<path d="M212.99 374.168C212.5 373.923 212.193 373.433 212.377 373.126C212.622 372.759 215.133 372.575 224.014 372.759L218.196 373.126C215.011 373.31 212.928 373.555 213.541 373.616C214.215 373.678 214.521 373.923 214.337 374.168C214.092 374.474 213.48 374.474 212.99 374.168Z" fill="#443436"/>
<path d="M257.762 332.503C242.45 332.442 229.711 332.135 229.405 331.89C229.16 331.645 241.776 331.461 257.517 331.461C276.442 331.461 286.058 331.645 285.874 332.074C285.691 332.503 275.83 332.626 257.762 332.503Z" fill="#443436"/>
<path d="M271.481 337.405C263.58 337.527 250.351 337.527 242.083 337.405C233.814 337.344 240.307 337.282 256.476 337.282C272.645 337.282 279.382 337.344 271.481 337.405Z" fill="#443436"/>
<path d="M246.37 342.919C242.511 343.042 235.897 343.042 231.671 342.919C227.445 342.858 230.63 342.735 238.714 342.735C246.799 342.735 250.229 342.858 246.37 342.919Z" fill="#443436"/>
<path d="M284.588 342.919C284.282 343.226 277.667 343.287 269.95 343.103L255.863 342.735L270.501 342.613C278.586 342.552 284.956 342.674 284.588 342.919Z" fill="#443436"/>
<path d="M228.118 348.066C224.362 348.066 222.606 347.841 222.851 347.392C223.096 346.963 225.056 346.902 228.241 347.086C230.936 347.27 233.324 347.576 233.508 347.76C233.692 347.943 231.242 348.066 228.118 348.066Z" fill="#443436"/>
<path d="M255.68 347.943C243.308 348.005 236.57 347.821 236.57 347.453C236.57 347.024 242.205 346.841 252.311 346.902C261.008 346.902 269.644 347.147 271.481 347.392C273.564 347.698 267.378 347.882 255.68 347.943Z" fill="#443436"/>
<path d="M243.001 352.661L261.069 352.355C270.991 352.171 280.301 351.926 281.709 351.865C283.179 351.804 284.343 351.987 284.343 352.355C284.343 352.723 277.116 352.906 243.001 352.661Z" fill="#443436"/>
<path d="M236.264 352.784C233.569 352.906 228.853 352.906 225.852 352.784C222.851 352.661 224.995 352.6 230.752 352.6C236.509 352.6 238.959 352.661 236.264 352.784Z" fill="#443436"/>
<path d="M224.627 357.686C223.28 357.808 221.32 357.808 220.34 357.686C219.36 357.563 220.401 357.441 222.79 357.441C225.179 357.441 225.975 357.563 224.627 357.686Z" fill="#443436"/>
<path d="M257.578 357.992C243.491 357.931 231.548 357.747 231.058 357.624C230.568 357.502 242.083 357.318 256.598 357.318C271.175 357.257 283.118 357.441 283.118 357.686C283.118 357.931 271.604 358.053 257.578 357.992Z" fill="#443436"/>
<path d="M222.3 363.506C219.054 363.568 216.359 363.445 216.359 363.2C216.359 362.955 220.401 362.771 225.362 362.832C230.385 362.894 233.018 363.078 231.364 363.139C229.711 363.261 225.607 363.445 222.3 363.506Z" fill="#443436"/>
<path d="M250.351 363.2C247.962 363.323 243.859 363.323 241.164 363.2C238.469 363.078 240.368 363.016 245.451 363.016C250.474 363.016 252.74 363.078 250.351 363.2Z" fill="#443436"/>
<path d="M276.075 363.2C272.339 363.323 266.459 363.323 262.907 363.2C259.354 363.078 262.417 363.016 269.644 363.016C276.871 363.016 279.811 363.078 276.075 363.2Z" fill="#443436"/>
<path d="M220.83 368.837C217.033 368.898 214.522 368.653 214.522 368.286C214.522 367.918 217.339 367.673 221.687 367.673C226.587 367.673 228.608 367.857 227.996 368.286C227.506 368.592 224.26 368.837 220.83 368.837Z" fill="#443436"/>
<path d="M256.782 368.715C242.634 368.653 231.058 368.347 231.058 368.102C231.058 367.857 242.634 367.673 256.782 367.673C273.502 367.673 282.506 367.857 282.506 368.286C282.506 368.653 273.625 368.837 256.782 368.715Z" fill="#443436"/>
<path d="M212.378 373.555L218.196 373.187C221.381 372.942 224.076 372.758 224.137 372.697C224.26 372.575 224.321 372.82 224.321 373.187C224.321 373.555 221.994 373.739 212.378 373.555Z" fill="#443436"/>
<path d="M254.332 373.8C237.612 373.8 228.608 373.555 228.608 373.187C228.608 372.758 237.612 372.575 254.332 372.575C271.053 372.575 280.056 372.758 280.056 373.187C280.056 373.555 271.053 373.8 254.332 373.8Z" fill="#443436"/>
<path d="M340.34 93.7707C349.129 94.8304 366.812 91.4282 367.234 69.3413C367.761 41.7328 392.37 49.2624 396.061 43.5733C399.753 37.8843 406.432 25.8369 424.537 25.8369C442.643 25.8369 447.213 37.5496 446.334 43.5733C445.455 49.597 441.412 54.4494 435.611 54.1148C429.811 53.7801 427.701 51.6049 427.701 47.5891C427.701 43.5733 441.236 31.3586 460.045 41.0635" stroke="#443436" stroke-width="1.18824"/>
<path d="M383.692 42.9902L383.896 44.0088L384.565 43.2136L384.565 43.2135L384.565 43.2133L384.566 43.2116L384.573 43.2037L384.601 43.1706C384.627 43.1411 384.665 43.0968 384.716 43.0391C384.818 42.9238 384.969 42.755 385.166 42.5441C385.559 42.1222 386.132 41.5323 386.849 40.8639C388.284 39.5245 390.283 37.8825 392.552 36.6427C394.826 35.4004 397.328 34.5859 399.789 34.8355C402.226 35.0827 404.698 36.3809 406.923 39.5194C408.149 41.248 408.697 42.8192 408.744 44.2917C408.792 45.7646 408.34 47.1907 407.479 48.6322C405.737 51.5446 402.391 54.4133 398.394 57.6974C398.05 57.9798 397.702 58.2651 397.35 58.5534C389.999 64.575 381.01 71.9392 376.944 83.1222C374.749 71.4348 368.249 61.484 362.636 52.8922C361.472 51.11 360.346 49.3863 359.305 47.7177C356.108 42.5967 353.731 38.0357 353.34 33.8622C353.147 31.7914 353.443 29.82 354.377 27.9187C355.308 26.0243 356.884 24.1717 359.294 22.3536C363.945 20.2389 367.742 20.4684 370.839 21.9474C373.973 23.4436 376.454 26.2486 378.374 29.3776C380.29 32.5014 381.621 35.9048 382.474 38.5354C382.9 39.849 383.205 40.9658 383.403 41.7531C383.502 42.1466 383.575 42.4576 383.622 42.6694C383.646 42.7753 383.664 42.8564 383.675 42.9105L383.688 42.9713L383.691 42.9861L383.692 42.9895L383.692 42.9902L384.182 42.8918L383.692 42.9902Z" fill="#FFEB43" stroke="#443436"/>
</svg>
