<svg width="319" height="302" viewBox="0 0 319 302" fill="none" xmlns="http://www.w3.org/2000/svg">
<circle cx="159.24" cy="155.543" r="118.293" stroke="black" stroke-width="7"/>
<path fill-rule="evenodd" clip-rule="evenodd" d="M159.25 212.023C160.64 209.811 162.922 205.748 164.358 202.971C173.611 184.178 172.603 164.293 172.603 164.293C172.235 156.709 171.522 151.079 170.727 146.97C170.009 142.82 168.383 136.394 167.149 132.665C165.892 128.8 162.709 121.572 159.639 115.86C156.342 109.628 152.846 104.043 150.363 101.023C148.16 98.3482 144.845 94.6862 142.895 92.8618C140.964 90.9787 137.413 88.0813 134.938 86.2884C130.862 83.4225 129.622 82.8473 121.623 80.3827C114.112 78.0042 112.175 77.6007 108.302 77.631C105.79 77.63 101.989 78.2621 99.8439 78.9537C97.6806 79.704 94.87 81.0922 93.6072 82.0556C92.3262 83.0778 90.271 85.1495 89.0215 86.6966C87.8308 88.2619 86.0557 91.5148 85.1363 93.872C84.1443 96.4646 83.111 100.654 82.6119 104.365C82.0857 107.745 81.6447 113.148 81.5802 116.284C81.4976 119.478 81.7218 125.022 82.0191 128.655C82.3164 132.289 83.192 138.227 83.9554 141.811C84.7777 145.413 86.3684 151.12 87.5753 154.519C88.7234 157.899 90.9659 163.163 92.5169 166.281C94.086 169.341 96.9984 174.102 98.9884 176.841C100.978 179.579 104.28 183.495 106.311 185.473L110.034 189.067C104.635 192.169 101.769 194.571 100.117 196.381C97.5546 199.262 96.9206 200.484 94.9456 206.058C93.2831 210.827 92.6259 213.587 92.4482 216.881C92.3297 219.356 92.455 223.13 92.7392 225.343C93.0823 227.574 94.2393 231.344 95.424 233.77C96.7759 236.698 98.2639 238.767 99.8292 239.957C101.177 241.017 103.657 242.167 105.733 242.743C107.792 243.377 110.914 243.695 113.227 243.506C115.403 243.339 119.377 242.567 122.142 241.744C124.907 240.922 129.65 238.905 132.687 237.2C135.765 235.572 139.241 233.488 140.467 232.642C141.635 231.778 144.157 229.657 146.044 227.92C147.932 226.183 151.087 222.84 153.056 220.42C155.085 218.018 157.86 214.236 159.25 212.023ZM251.302 145.905C249.325 143.75 248.28 143.171 243.511 141.508C238.96 139.977 237.258 139.646 233.738 139.785C231.385 139.897 227.619 140.412 225.393 140.949C223.166 141.487 218.862 143.124 215.916 144.534C212.97 145.945 208.629 148.536 206.235 150.246C203.899 151.974 199.757 155.592 197.114 158.32C194.47 161.047 190.567 165.77 188.399 168.837C186.289 171.923 183.618 175.994 182.495 177.967C181.313 179.921 179.266 184.057 177.857 187.165C176.358 190.567 174.587 195.689 173.518 199.996C172.498 203.933 171.41 209.974 171.06 213.408C170.71 216.842 170.514 221.87 170.653 224.553C170.734 227.219 171.261 231.567 171.731 234.224C172.219 236.821 173.457 240.745 174.56 243.017C175.664 245.289 177.473 247.779 178.604 248.707C180.368 250.088 181.191 250.341 184.155 250.546C186.3 250.692 189.151 250.218 191.604 249.363C193.786 248.554 196.922 246.944 198.665 245.678C200.33 244.452 203.019 241.996 204.672 240.187C206.324 238.377 208.701 235.052 209.973 232.804C211.472 230.238 212.65 227.252 213.216 224.786C213.692 222.614 213.92 219.786 213.676 218.487C213.491 217.207 212.455 214.505 211.397 212.504L209.561 208.847C214.73 206.704 217.54 205.316 219.233 204.421C220.867 203.507 223.99 201.314 226.168 199.473C228.345 197.632 231.735 194.362 233.768 192.154C235.742 189.929 239.278 185.351 241.596 182.007C243.855 178.646 246.934 173.669 248.369 170.892C249.846 168.191 251.838 163.395 252.781 160.336C254.271 155.708 254.471 154.223 254.06 151.585C253.771 149.178 253.057 147.734 251.302 145.905ZM114.079 92.876C112.894 92.9616 110.667 93.4992 109.201 94.0779C107.657 94.6973 105.476 96.3436 104.013 97.954C101.795 100.555 101.442 101.284 99.9057 107.315C98.51 112.681 98.2738 115.12 98.3622 120.686C98.4875 124.46 99.0058 130.094 99.5069 133.275C100.008 136.457 101.386 142.227 102.507 146.114C103.795 150.504 106.263 156.288 108.891 161.348C111.251 165.811 114.326 170.88 115.746 172.541C117.149 174.261 119.876 176.905 121.799 178.399C123.78 179.911 126.445 181.505 127.798 181.922C129.21 182.357 134.214 183.255 138.961 183.944C144.255 184.738 148.227 185.64 149.214 186.202C150.793 187.139 150.775 187.198 149.403 187.677C148.611 187.948 143.805 188.915 138.764 189.809C133.723 190.703 127.586 192.226 125.156 193.216C122.666 194.188 118.864 196.494 116.397 198.439C114.066 200.361 110.907 203.51 109.376 205.55C107.167 208.54 106.352 210.35 104.775 215.467C103.017 221.173 102.899 221.974 103.568 225.657C104.019 228.373 104.905 230.513 106.249 232.215C107.936 234.474 108.804 234.999 111.863 235.941C114.686 236.811 116.401 236.889 119.583 236.388C122.026 235.981 125.656 234.652 128.657 233.065C131.427 231.6 135.319 229 137.365 227.376C139.429 225.693 142.784 222.54 144.816 220.333C146.849 218.125 149.597 214.85 150.878 212.991C152.2 211.209 154.247 207.911 155.501 205.721C156.678 203.572 158.843 198.636 160.216 194.808C162.009 189.822 162.898 186.103 163.556 181.668C164.023 178.27 164.301 172.56 164.239 168.998C164.118 165.419 163.573 159.455 162.923 155.712C162.331 151.988 160.926 145.887 159.81 142.194C158.694 138.501 155.972 131.867 153.77 127.517C151.568 123.168 148.126 117.406 146.136 114.667C144.146 111.929 140.089 107.33 137.026 104.519C133.964 101.707 129.938 98.4705 127.983 97.2887C126.011 96.1657 122.59 94.7255 120.296 94.0187C118.002 93.3119 115.188 92.8312 114.079 92.876ZM231.762 147.167C229.318 147.573 225.39 148.617 222.996 149.49C220.602 150.362 216.519 152.325 214.003 153.803C211.486 155.282 207.92 157.661 206.2 159.063C204.421 160.447 201.066 163.6 198.69 166.088C196.372 168.594 193.149 172.367 191.582 174.525C190.016 176.682 187.707 180.415 186.416 182.722C185.107 185.088 182.866 190.065 181.353 193.721C179.586 198.2 178.209 202.67 177.37 206.856C176.672 210.376 175.924 215.105 175.724 217.426C175.447 219.788 175.337 223.489 175.427 225.707C175.498 227.983 175.723 231.015 175.972 232.508C176.279 234.02 176.753 236.034 177.146 237.056C177.54 238.079 178.63 239.767 179.589 240.836C180.529 241.963 182.172 243.113 183.113 243.403C184.054 243.693 186.429 243.716 188.235 243.5C190.33 243.179 193.186 242.063 195.798 240.484C198.083 239.128 201.637 236.165 203.728 233.976C205.992 231.646 207.784 229.171 208.165 227.936C208.509 226.819 208.574 224.52 208.321 222.832C208.068 221.144 206.644 217.614 205.278 214.939C203.144 210.997 201.502 209.01 195.87 203.668C192.129 200.132 189.076 196.873 189.085 196.425C189.094 195.977 190.004 195.742 191.176 195.91C192.248 195.983 194.619 196.649 196.366 197.251C198.094 197.913 200.547 198.733 201.8 199.055C202.994 199.358 205.175 199.386 206.592 199.178C207.95 198.953 211.054 197.655 213.458 196.335C215.879 194.955 219.215 192.699 220.876 191.278C222.537 189.858 225.434 187.144 227.259 185.195C229.142 183.263 231.967 179.947 233.592 177.807C235.159 175.649 237.699 171.795 239.198 169.23C240.637 166.647 242.454 162.633 243.178 160.281C243.885 157.987 244.402 155.055 244.317 153.869C244.154 152.724 243.49 150.909 242.784 149.855C241.839 148.533 240.731 147.741 238.83 147.219C237.066 146.676 234.749 146.67 231.762 147.167Z" fill="black"/>
<path d="M204.474 93.5218C204.474 93.5218 204.924 55.6989 179.263 61.415C151.19 74.4325 187.034 105.774 184.451 143.192C200.302 114.277 242.309 115.163 233.654 95.0737C225.821 76.8926 204.474 93.5218 204.474 93.5218Z" fill="#FFEB43"/>
</svg>
